<svg width="128" height="62" viewBox="0 0 128 62" fill="none" xmlns="http://www.w3.org/2000/svg">
<path fill-rule="evenodd" clip-rule="evenodd" d="M72.785 9.17924C73.1453 9.5272 73.3709 9.8944 73.4555 10.2682C76.4174 10.4693 79.2089 11.4937 81.3271 13.1758C83.701 15.0609 85.0346 17.6176 85.0346 20.2836H82.9546C82.9546 18.0557 81.8401 15.9191 79.8564 14.3437C77.8726 12.7684 75.1821 11.8834 72.3766 11.8834C69.6867 11.8834 67.367 12.4911 65.4319 13.9297C65.6018 14.0952 65.7648 14.2646 65.9205 14.4376C67.7504 13.4065 70.0224 12.8377 72.3766 12.8377C75.1413 12.8377 77.7927 13.6222 79.7476 15.0185C81.7025 16.4149 82.8008 18.3088 82.8008 20.2836H81.0879C81.0879 18.6333 80.1701 17.0506 78.5364 15.8837C76.9027 14.7168 74.687 14.0612 72.3766 14.0612C70.3177 14.0612 68.334 14.5818 66.7704 15.5209C66.8951 15.705 67.0125 15.8921 67.1224 16.0818C68.6335 15.1927 70.5612 14.6992 72.5628 14.6992C74.7844 14.6992 76.915 15.3071 78.4859 16.3893C80.0568 17.4715 80.9394 18.9393 80.9394 20.4697H79.5629C79.5629 19.1908 78.8254 17.9642 77.5126 17.0598C76.1998 16.1555 74.4193 15.6474 72.5628 15.6474C70.7062 15.6474 68.9257 16.1555 67.6129 17.0598L67.6128 17.0599C67.6636 17.1791 67.7116 17.299 67.7567 17.4197C69.001 16.6302 70.6546 16.1883 72.3766 16.1883C74.1539 16.1883 75.8584 16.659 77.1151 17.4968C78.3059 18.2907 79.0022 19.3525 79.0721 20.4697H90.619C90.619 21.9738 89.9185 23.4629 88.5582 24.8505C87.1978 26.2382 85.2048 27.4967 82.6947 28.553C80.1847 29.6093 77.2077 30.4424 73.9366 31.0039C70.6656 31.5653 67.1656 31.844 63.64 31.8236C60.1143 31.8033 56.6333 31.4844 53.399 30.8854C50.1648 30.2864 47.2417 29.4192 44.7996 28.3343C42.3574 27.2494 40.4449 25.9684 39.1731 24.5656C37.9012 23.1628 37.2954 21.6661 37.3908 20.1626L42.9656 20.2269C42.9843 17.5815 44.3158 15.0475 46.6728 13.1758C48.8807 11.4225 51.8203 10.3837 54.9216 10.2471C55.0099 9.88058 55.2337 9.52065 55.5873 9.17924C56.055 8.72755 56.7406 8.31714 57.6048 7.97143C58.4691 7.62573 59.4951 7.3515 60.6244 7.1644C61.7536 6.97731 62.9639 6.88101 64.1861 6.88101C65.4084 6.88101 66.6187 6.97731 67.7479 7.1644C68.8771 7.3515 69.9031 7.62573 70.7674 7.97143C71.6317 8.31714 72.3172 8.72755 72.785 9.17924ZM45.0454 20.2509L45.1993 20.2527C45.2106 18.2891 46.3076 16.4076 48.2524 15.0185C50.2073 13.6222 52.8587 12.8377 55.6234 12.8377C58.3881 12.8377 61.0395 13.6222 62.9944 15.0185C64.9494 16.4149 66.0476 18.3088 66.0476 20.2836H64.3347C64.3347 18.6333 63.4169 17.0506 61.7832 15.8837C60.1495 14.7168 57.9338 14.0612 55.6234 14.0612C53.313 14.0612 51.0973 14.7168 49.4636 15.8837C47.8335 17.048 46.9162 18.6262 46.9121 20.2725L47.4375 20.2786C47.5078 18.8175 48.381 17.4264 49.8864 16.3893C51.4573 15.3071 53.5879 14.6992 55.8095 14.6992C58.0312 14.6992 60.1618 15.3071 61.7327 16.3893C63.3036 17.4715 64.1861 18.9393 64.1861 20.4697H63.9994L64 20.4697H76.7536C76.69 19.8334 76.302 19.2284 75.6495 18.757C74.9337 18.2398 73.9519 17.9213 72.8997 17.8648C71.8475 17.8084 70.802 18.0181 69.9713 18.4523C69.1406 18.8865 68.5856 19.5133 68.4167 20.208L68.2808 20.1933C68.2812 20.2234 68.2813 20.2535 68.2813 20.2836H66.2014C66.2014 18.0557 65.0869 15.9191 63.1032 14.3437C61.1194 12.7684 58.4288 11.8834 55.6234 11.8834C52.8179 11.8834 50.1273 12.7684 48.1436 14.3437C46.1695 15.9114 45.0563 18.0349 45.0454 20.2509ZM77.581 20.4697H77.9698C77.9007 19.5473 77.3207 18.6721 76.3365 18.0159C75.2863 17.3158 73.8618 16.9224 72.3766 16.9224C70.8913 16.9224 69.4669 17.3158 68.4167 18.0159C68.2391 18.1344 68.1061 18.1897 68.0077 18.2048C68.079 18.4724 68.1366 18.7429 68.1803 19.0155C68.502 18.6336 68.9356 18.294 69.4618 18.019C70.4558 17.4994 71.7069 17.2485 72.966 17.316C74.2251 17.3836 75.3999 17.7647 76.2565 18.3836C77.0498 18.9568 77.5163 19.6949 77.581 20.4697ZM62.8097 20.456C62.8044 19.182 62.0675 17.9609 60.7594 17.0598C59.4466 16.1555 57.6661 15.6474 55.8095 15.6474C53.953 15.6474 52.1725 16.1555 50.8597 17.0598C49.607 17.9228 48.8781 19.0791 48.814 20.2944L48.9438 20.2959C49.0715 19.2428 49.756 18.2494 50.8848 17.4968C52.1416 16.659 53.8461 16.1883 55.6234 16.1883C57.4007 16.1883 59.1052 16.659 60.3619 17.4968C61.5458 18.2861 62.2409 19.3402 62.3176 20.4503L62.8097 20.456ZM61.2139 20.4376C61.134 19.527 60.556 18.6645 59.5832 18.0159C58.533 17.3158 57.1086 16.9224 55.6234 16.9224C54.1381 16.9224 52.7137 17.3158 51.6635 18.0159C50.7367 18.6338 50.1683 19.4459 50.0475 20.3087L50.8092 20.3175C50.9256 19.5531 51.4335 18.8347 52.2556 18.2866C53.1982 17.6582 54.4765 17.3052 55.8095 17.3052C57.1425 17.3052 58.4209 17.6582 59.3634 18.2866C60.2269 18.8622 60.7437 19.6258 60.8244 20.4331L61.2139 20.4376ZM59.9951 20.4235C59.913 19.766 59.4845 19.146 58.7794 18.6759C57.9918 18.1508 56.9235 17.8558 55.8095 17.8558C54.6956 17.8558 53.6273 18.1508 52.8396 18.6759C52.1691 19.1229 51.7487 19.7055 51.6385 20.327L59.9951 20.4235ZM69.228 10.3888C69.2946 10.4507 69.3531 10.5136 69.4033 10.5775C69.227 10.6198 69.0527 10.6657 68.8801 10.7152C68.6487 10.5034 68.3453 10.3096 67.9807 10.1413C67.5313 9.93389 66.9978 9.76935 66.4106 9.6571C65.8234 9.54484 65.194 9.48706 64.5585 9.48706C63.9229 9.48706 63.2935 9.54484 62.7063 9.6571C62.1191 9.76936 61.5856 9.93389 61.1362 10.1413C60.6868 10.3487 60.3303 10.595 60.0871 10.866L60.079 10.875C59.8162 10.7965 59.5501 10.7249 59.2811 10.6604C59.3426 10.5681 59.4212 10.4773 59.5165 10.3888C59.7807 10.1435 60.1678 9.9207 60.6558 9.73299C61.1439 9.54528 61.7233 9.39638 62.361 9.29479C62.9986 9.1932 63.6821 9.14092 64.3723 9.14092C65.0625 9.14092 65.7459 9.1932 66.3836 9.29479C67.0212 9.39638 67.6006 9.54528 68.0887 9.73299C68.5767 9.9207 68.9639 10.1435 69.228 10.3888ZM67.0361 10.5773C67.3528 10.7235 67.6058 10.8964 67.7815 11.0864C67.4047 11.2333 67.0369 11.3973 66.6773 11.577C66.5799 11.463 66.4693 11.3563 66.3467 11.2582C66.0874 11.0508 65.7796 10.8862 65.4408 10.774C65.1021 10.6617 64.739 10.6039 64.3723 10.6039C64.0056 10.6039 63.6425 10.6617 63.3038 10.774C62.965 10.8862 62.6572 11.0508 62.3979 11.2582C62.2613 11.3675 62.1396 11.4875 62.0345 11.6163C61.7618 11.4891 61.4834 11.3702 61.2 11.2597C61.2344 11.2063 61.2749 11.1536 61.3213 11.102C61.4974 10.9058 61.7555 10.7275 62.0808 10.5773C62.4062 10.4271 62.7925 10.308 63.2176 10.2268C63.6427 10.1455 64.0983 10.1037 64.5585 10.1037C65.0186 10.1037 65.4742 10.1455 65.8993 10.2268C66.3244 10.308 66.7107 10.4271 67.0361 10.5773ZM65.8017 11.6942C65.8882 11.7634 65.9664 11.8385 66.0356 11.9187C65.458 12.2454 64.9019 12.6124 64.3641 13.013C63.8416 12.6168 63.2806 12.2594 62.6884 11.943C62.7625 11.8537 62.8477 11.7703 62.9429 11.6942C63.1306 11.544 63.3535 11.4249 63.5987 11.3436C63.844 11.2624 64.1068 11.2205 64.3723 11.2205C64.6378 11.2205 64.9006 11.2624 65.1459 11.3436C65.3911 11.4249 65.614 11.544 65.8017 11.6942ZM57.5035 10.2585C57.5795 10.0233 57.7329 9.79257 57.9608 9.5725C58.2994 9.2455 58.7958 8.94837 59.4215 8.69809C60.0472 8.44781 60.79 8.24928 61.6075 8.11382C62.425 7.97837 63.3012 7.90866 64.1861 7.90866C65.071 7.90866 65.9472 7.97837 66.7647 8.11382C67.5822 8.24928 68.3251 8.44781 68.9508 8.69809C69.5765 8.94837 70.0728 9.2455 70.4114 9.5725C70.4443 9.60425 70.4756 9.63622 70.5054 9.66839C70.2199 9.495 69.8848 9.33382 69.5057 9.188C68.8315 8.92872 68.0312 8.72305 67.1504 8.58273C66.2697 8.44241 65.3256 8.37018 64.3723 8.37018C63.4189 8.37018 62.4749 8.44241 61.5941 8.58273C60.7133 8.72305 59.913 8.92872 59.2389 9.188C58.5647 9.44728 58.03 9.75509 57.6652 10.0939C57.6067 10.1481 57.5528 10.203 57.5035 10.2585Z" fill="#606C5D"/>
<path d="M10.6 57.7057V43.5057H20.06V45.4857H12.84V49.7257H18.88V51.5857H12.84V57.7057H10.6ZM22.182 57.7057V43.5057H24.422V57.7057H22.182ZM29.8713 47.6657V57.7057H27.6313V43.5057H29.4713L37.5113 53.7657V43.5257H39.7713V57.7057H37.8113L29.8713 47.6657ZM42.9633 57.7057V43.5057H48.0033C49.5366 43.5057 50.8166 43.8257 51.8433 44.4657C52.8699 45.0924 53.6366 45.9457 54.1433 47.0257C54.6633 48.0924 54.9233 49.279 54.9233 50.5857C54.9233 52.0257 54.6366 53.279 54.0633 54.3457C53.5033 55.4124 52.7033 56.239 51.6633 56.8257C50.6233 57.4124 49.4033 57.7057 48.0033 57.7057H42.9633ZM52.6433 50.5857C52.6433 49.5857 52.4566 48.7057 52.0833 47.9457C51.7233 47.1724 51.1966 46.5724 50.5033 46.1457C49.8233 45.7057 48.9899 45.4857 48.0033 45.4857H45.2033V55.7257H48.0033C49.0033 55.7257 49.8433 55.499 50.5233 55.0457C51.2166 54.5924 51.7433 53.979 52.1033 53.2057C52.4633 52.4324 52.6433 51.559 52.6433 50.5857ZM67.3677 45.4857H62.6477V57.7057H60.3877V45.4857H55.6477V43.5057H67.3677V45.4857ZM74.7813 57.8057C73.7546 57.8057 72.8279 57.6057 72.0013 57.2057C71.1746 56.8057 70.4613 56.2657 69.8613 55.5857C69.2613 54.8924 68.7946 54.119 68.4613 53.2657C68.1413 52.399 67.9813 51.5124 67.9813 50.6057C67.9813 49.659 68.1546 48.759 68.5013 47.9057C68.8479 47.039 69.3279 46.2724 69.9413 45.6057C70.5546 44.9257 71.2746 44.3924 72.1013 44.0057C72.9413 43.6057 73.8479 43.4057 74.8213 43.4057C75.8346 43.4057 76.7546 43.6124 77.5813 44.0257C78.4213 44.439 79.1346 44.9924 79.7213 45.6857C80.3213 46.379 80.7813 47.1524 81.1013 48.0057C81.4346 48.859 81.6013 49.7324 81.6013 50.6257C81.6013 51.5724 81.4279 52.479 81.0813 53.3457C80.7479 54.199 80.2746 54.9657 79.6613 55.6457C79.0479 56.3124 78.3213 56.839 77.4813 57.2257C76.6546 57.6124 75.7546 57.8057 74.7813 57.8057ZM70.2613 50.6057C70.2613 51.2724 70.3679 51.919 70.5813 52.5457C70.7946 53.1724 71.0946 53.7324 71.4813 54.2257C71.8813 54.7057 72.3613 55.0857 72.9213 55.3657C73.4813 55.6457 74.1079 55.7857 74.8013 55.7857C75.5213 55.7857 76.1613 55.639 76.7213 55.3457C77.2813 55.0524 77.7479 54.659 78.1213 54.1657C78.5079 53.659 78.8013 53.099 79.0013 52.4857C79.2013 51.859 79.3013 51.2324 79.3013 50.6057C79.3013 49.939 79.1946 49.299 78.9813 48.6857C78.7813 48.059 78.4813 47.5057 78.0813 47.0257C77.6813 46.5324 77.2013 46.1457 76.6413 45.8657C76.0946 45.5857 75.4813 45.4457 74.8013 45.4457C74.0813 45.4457 73.4413 45.5924 72.8813 45.8857C72.3213 46.179 71.8479 46.5724 71.4613 47.0657C71.0746 47.559 70.7746 48.1124 70.5613 48.7257C70.3613 49.339 70.2613 49.9657 70.2613 50.6057ZM93.6603 55.7257V57.7057H83.9203V43.5057H93.4803V45.4857H86.1603V49.5257H92.5003V51.3857H86.1603V55.7257H93.6603ZM100.071 43.5057H102.191L107.711 57.7057H105.351L103.851 53.8457H98.3711L96.8911 57.7057H94.5111L100.071 43.5057ZM103.411 52.1857L101.131 45.9657L98.7711 52.1857H103.411ZM118.559 45.4857H113.839V57.7057H111.579V45.4857H106.839V43.5057H118.559V45.4857Z" fill="#606C5D"/>
</svg>
